<svg width="18" height="18" viewBox="0 0 18 18" fill="none" xmlns="http://www.w3.org/2000/svg">
<path d="M2.63672 18H15.3633C16.8172 18 18 16.8172 18 15.3633V2.63672C18 1.18282 16.8172 0 15.3633 0H2.63672C1.18282 0 0 1.18282 0 2.63672V15.3633C0 16.8172 1.18282 18 2.63672 18ZM1.05469 2.63672C1.05469 1.7644 1.7644 1.05469 2.63672 1.05469H15.3633C16.2356 1.05469 16.9453 1.7644 16.9453 2.63672V15.3633C16.9453 16.2356 16.2356 16.9453 15.3633 16.9453H2.63672C1.7644 16.9453 1.05469 16.2356 1.05469 15.3633V2.63672Z" fill="white"/>
<path d="M9 13.7461C11.6169 13.7461 13.7461 11.6169 13.7461 9C13.7461 6.38306 11.6169 4.25391 9 4.25391C6.38306 4.25391 4.25391 6.38306 4.25391 9C4.25391 11.6169 6.38306 13.7461 9 13.7461ZM9 5.30859C11.0355 5.30859 12.6914 6.96451 12.6914 9C12.6914 11.0355 11.0355 12.6914 9 12.6914C6.96451 12.6914 5.30859 11.0355 5.30859 9C5.30859 6.96451 6.96451 5.30859 9 5.30859Z" fill="white"/>
<path d="M14.2734 5.30859C15.1458 5.30859 15.8555 4.59888 15.8555 3.72656C15.8555 2.85425 15.1458 2.14453 14.2734 2.14453C13.4011 2.14453 12.6914 2.85425 12.6914 3.72656C12.6914 4.59888 13.4011 5.30859 14.2734 5.30859ZM14.2734 3.19922C14.5642 3.19922 14.8008 3.43584 14.8008 3.72656C14.8008 4.01729 14.5642 4.25391 14.2734 4.25391C13.9827 4.25391 13.7461 4.01729 13.7461 3.72656C13.7461 3.43584 13.9827 3.19922 14.2734 3.19922Z" fill="white"/>
</svg>
