<svg width="18" height="18" viewBox="0 0 18 18" fill="none" xmlns="http://www.w3.org/2000/svg">
<g clip-path="url(#clip0)">
<path d="M18 3.61986C16.8677 3.67204 16.8924 3.66779 16.7644 3.6785L17.435 1.76345C17.435 1.76345 15.3419 2.53345 14.8112 2.67119C13.4176 1.41861 11.3461 1.36327 9.86517 2.27349C8.65242 3.01905 8.00148 4.29936 8.2186 5.79584C5.85832 5.46831 3.86966 4.34949 2.29958 2.46341L1.80299 1.86699L1.43193 2.54842C0.962952 3.40947 0.80722 4.39398 0.993301 5.32054C1.06966 5.70067 1.19943 6.06322 1.3792 6.4027L0.953201 6.23763L0.902664 6.9494C0.85144 7.67244 1.09218 8.51647 1.54674 9.20696C1.67473 9.40142 1.83952 9.61496 2.0484 9.82562L1.82826 9.79184L2.09688 10.6074C2.44995 11.679 3.18329 12.5081 4.13498 12.969C3.18452 13.3723 2.41672 13.6296 1.15466 14.0448L0 14.4244L1.0665 15.0075C1.47313 15.2298 2.91 15.9723 4.32971 16.1951C7.48553 16.69 11.0386 16.287 13.4306 14.1327C15.4454 12.3181 16.1065 9.73705 15.9692 7.05103C15.9484 6.6444 16.0598 6.2563 16.2828 5.95844C16.7296 5.36202 17.9973 3.62384 18 3.61986ZM15.4395 5.32672C15.0691 5.82125 14.8836 6.45282 14.9168 7.10486C15.0554 9.81423 14.3182 11.9154 12.7256 13.3496C10.8652 15.0252 7.86442 15.6828 4.493 15.154C3.88243 15.0583 3.2514 14.8439 2.72914 14.6298C3.78726 14.2657 4.60437 13.9412 5.92396 13.3167L7.7661 12.4448L5.73225 12.3146C4.75804 12.2522 3.94684 11.7801 3.4482 11.0135C3.71297 10.9981 3.96826 10.9553 4.22246 10.8844L6.16223 10.3442L4.20625 9.86518C3.2558 9.6324 2.71403 9.06372 2.42688 8.62757C2.23833 8.34096 2.11514 8.04735 2.04126 7.77667C2.23737 7.82927 2.46602 7.86676 2.83475 7.90329L4.64516 8.08237L3.21075 6.96341C2.17722 6.15729 1.76303 4.94618 2.06667 3.78191C5.29225 7.12752 9.07951 6.87607 9.46074 6.96451C9.37683 6.14946 9.37463 6.14754 9.35266 6.06995C8.86446 4.34413 9.93439 3.46784 10.417 3.17121C11.425 2.55171 13.025 2.45833 14.1332 3.47896C14.3726 3.69924 14.6963 3.78589 14.9992 3.71063C15.2711 3.64307 15.4943 3.57152 15.7128 3.49365L15.2579 4.79251L15.8386 4.79293C15.729 4.93987 15.5976 5.11579 15.4395 5.32672Z" fill="white"/>
</g>
<defs>
<clipPath id="clip0">
<rect width="18" height="18" fill="white"/>
</clipPath>
</defs>
</svg>
