<svg width="18" height="18" viewBox="0 0 18 18" fill="none" xmlns="http://www.w3.org/2000/svg">
<path d="M2.63672 15.8555H15.3633C16.8172 15.8555 18 14.6727 18 13.2188V4.78125C18 3.32735 16.8172 2.14453 15.3633 2.14453H2.63672C1.18282 2.14453 0 3.32735 0 4.78125V13.2188C0 14.6727 1.18282 15.8555 2.63672 15.8555ZM1.05469 4.78125C1.05469 3.90894 1.7644 3.19922 2.63672 3.19922H15.3633C16.2356 3.19922 16.9453 3.90894 16.9453 4.78125V13.2188C16.9453 14.0911 16.2356 14.8008 15.3633 14.8008H2.63672C1.7644 14.8008 1.05469 14.0911 1.05469 13.2188V4.78125Z" fill="white"/>
<path d="M6.36328 5.46707V12.6354L12.709 8.99245L6.36328 5.46707ZM7.41797 7.25949L10.5645 9.00755L7.41797 10.8138V7.25949Z" fill="white"/>
</svg>
